<svg width="113" height="29" viewBox="0 0 113 29" fill="none" xmlns="http://www.w3.org/2000/svg">
<path d="M35.5048 22.3058C39.5172 22.3058 42.7699 19.0009 42.7699 14.9241C42.7699 10.8473 39.5172 7.54236 35.5048 7.54236C31.4924 7.54236 28.2397 10.8473 28.2397 14.9241C28.2397 19.0009 31.4924 22.3058 35.5048 22.3058Z" fill="black"/>
<path d="M6.53304 23.12C5.26542 23.1278 4.00373 22.9436 2.78957 22.5734C1.78944 22.3004 0.844929 21.8492 0 21.2407L1.19514 18.9389C1.96718 19.4516 2.80762 19.8492 3.69078 20.1194C4.67629 20.4422 5.70557 20.6057 6.74101 20.604C8.07202 20.604 9.03146 20.4162 9.61932 20.0405C9.89348 19.8768 10.1196 19.6416 10.2741 19.3592C10.4287 19.0768 10.5061 18.7576 10.4983 18.4346C10.509 18.2086 10.4659 17.9833 10.3728 17.7778C10.2796 17.5724 10.1391 17.3927 9.96317 17.254C9.54102 16.9414 9.05785 16.7243 8.5462 16.6173C7.95833 16.4764 7.3067 16.3496 6.59128 16.2369C5.87586 16.1243 5.16044 15.9834 4.44502 15.8143C3.762 15.6546 3.10082 15.4105 2.47624 15.0874C1.89508 14.7874 1.40167 14.3376 1.0454 13.7829C0.657196 13.1098 0.470272 12.3364 0.507452 11.5572C0.492459 10.6444 0.776297 9.7525 1.31438 9.02147C1.90221 8.25101 2.69235 7.665 3.59373 7.331C4.71527 6.91242 5.90423 6.71171 7.09872 6.73932C8.15874 6.74246 9.21485 6.8701 10.246 7.11969C11.1725 7.3157 12.0565 7.68032 12.8553 8.19596L11.6325 10.4978C10.9524 10.0294 10.1941 9.69049 9.39472 9.49762C8.63216 9.31483 7.8517 9.22032 7.06822 9.21587C5.81763 9.21587 4.88037 9.42435 4.26478 9.83852C3.98712 9.99842 3.75567 10.2296 3.59362 10.509C3.43156 10.7884 3.34459 11.1061 3.3414 11.4304C3.32848 11.6696 3.37208 11.9085 3.46856 12.1271C3.56504 12.3457 3.71159 12.5377 3.89598 12.687C4.3228 13.01 4.8095 13.2419 5.32682 13.3688C5.97035 13.5423 6.62304 13.6787 7.28174 13.7773C7.99716 13.89 8.71257 14.0318 9.42799 14.2028C10.1003 14.3609 10.7518 14.5992 11.369 14.9127C11.9451 15.2074 12.4383 15.6455 12.8027 16.1862C13.1997 16.8407 13.393 17.6018 13.3572 18.3698C13.3765 19.2804 13.0822 20.1692 12.5254 20.8829C11.9002 21.6387 11.0859 22.2091 10.1684 22.534C9.00168 22.952 7.76979 23.1506 6.53304 23.12V23.12Z" fill="black"/>
<path d="M14.6743 9.28346L14.6743 6.88863L24.7539 6.88863L24.7539 9.28346L14.6743 9.28346ZM22.3692 23.1312C20.7776 23.1312 19.5445 22.6973 18.6701 21.8296C17.7957 20.9618 17.3585 19.7193 17.3585 18.1021L17.3585 3.36682L20.2202 3.36682L20.2202 17.9725C20.2202 18.8403 20.4346 19.507 20.8635 19.9729C21.1031 20.2141 21.3904 20.4009 21.7064 20.5209C22.0224 20.6408 22.3598 20.6913 22.6964 20.6688C23.5076 20.6968 24.3018 20.4279 24.9342 19.9109L25.8271 22.0014C25.3715 22.394 24.8381 22.6823 24.2631 22.8467C23.6482 23.0304 23.0102 23.1224 22.3692 23.12V23.1312Z" fill="black"/>
<path d="M35.5215 23.12C34.0423 23.1488 32.5815 22.7836 31.2844 22.0606C30.0709 21.3719 29.0615 20.3649 28.3617 19.1446C27.6578 17.8478 27.2886 16.3909 27.2886 14.9099C27.2886 13.429 27.6578 11.9721 28.3617 10.6753C29.0608 9.46027 30.0708 8.46034 31.2844 7.7818C32.591 7.0932 34.0413 6.73376 35.5132 6.73376C36.985 6.73376 38.4353 7.0932 39.7419 7.7818C40.9562 8.45167 41.967 9.44649 42.6646 10.6584C43.358 11.9643 43.721 13.4248 43.721 14.9085C43.721 16.3923 43.358 17.8528 42.6646 19.1587C41.9692 20.381 40.9586 21.3873 39.7419 22.0691C38.4485 22.7852 36.9941 23.1473 35.5215 23.12V23.12ZM35.5215 20.5843C36.4756 20.5988 37.4167 20.3578 38.25 19.8856C39.0532 19.4246 39.7102 18.7405 40.144 17.9133C40.6157 16.9922 40.8513 15.965 40.8289 14.9269C40.8581 13.8822 40.6212 12.8477 40.1412 11.9234C39.7017 11.105 39.0457 10.4277 38.2473 9.96814C37.4137 9.49675 36.4726 9.25674 35.5187 9.27224C34.569 9.25493 33.6319 9.49514 32.804 9.96814C32.0076 10.435 31.3488 11.1102 30.8962 11.9234C30.3981 12.8387 30.1511 13.873 30.1808 14.9184C30.1583 15.9607 30.406 16.9906 30.899 17.9049C31.346 18.7268 32.0057 19.4088 32.8068 19.8771C33.6345 20.351 34.5715 20.5921 35.5215 20.5758V20.5843Z" fill="black"/>
<path d="M47.689 22.9397L47.689 6.88023L50.4314 6.88023L50.4314 11.2557L50.1541 10.1654C50.5759 9.08065 51.3617 8.18245 52.3725 7.62968C53.5504 7.01007 54.865 6.70744 56.1908 6.75064L56.1908 9.56809C56.0772 9.54835 55.9622 9.53799 55.847 9.5371H55.5308C54.0002 9.5371 52.7875 10.002 51.8927 10.9317C50.998 11.8615 50.5506 13.2045 50.5506 14.9607L50.5506 22.9622L47.689 22.9397Z" fill="black"/>
<path d="M79.4809 6.72527C80.6454 6.70231 81.7986 6.96214 82.8444 7.48317C83.8218 7.99249 84.6193 8.79785 85.1265 9.78784C85.6811 10.8171 85.9584 12.1197 85.9584 13.6956L85.9584 22.9397L83.0884 22.9397L83.0884 14.0281C83.0884 12.4729 82.7307 11.3018 82.0153 10.5147C81.2999 9.72774 80.2961 9.33329 79.0039 9.33141C78.1344 9.31313 77.2749 9.52273 76.5083 9.93999C75.785 10.346 75.2037 10.9702 74.8445 11.7262C74.4314 12.6474 74.233 13.6531 74.265 14.6648L74.265 22.9397L71.3977 22.9397L71.3977 14.0281C71.3977 12.4729 71.0447 11.3018 70.3385 10.5147C69.6323 9.72774 68.6248 9.33329 67.316 9.33141C66.4526 9.31322 65.5994 9.52291 64.8397 9.93999C64.1195 10.3499 63.5392 10.973 63.176 11.7262C62.7503 12.6438 62.5459 13.6511 62.5798 14.6648L62.5798 22.9397L59.707 22.9397L59.707 6.88023L62.4522 6.88023L62.4522 11.1543L62.003 10.064C62.4942 9.0195 63.2978 8.15957 64.299 7.60714C65.4065 7.00472 66.6479 6.702 67.9038 6.72809C69.289 6.68854 70.6528 7.08191 71.8109 7.85507C72.9035 8.60639 73.6189 9.7531 73.9572 11.2952L72.7953 10.8078C73.2812 9.56479 74.1588 8.5205 75.2909 7.83817C76.5561 7.07267 78.0088 6.68682 79.4809 6.72527V6.72527Z" fill="black"/>
<path d="M98.2705 23.12C96.72 23.1546 95.1862 22.7902 93.8116 22.0607C92.568 21.3916 91.5342 20.3812 90.8279 19.1446C90.1115 17.8569 89.7485 16.3974 89.7769 14.9185C89.7491 13.438 90.1039 11.9759 90.8057 10.6782C91.4704 9.46718 92.451 8.46594 93.6396 7.78467C94.8875 7.09972 96.283 6.73966 97.7013 6.73671C99.1196 6.73376 100.517 7.08801 101.767 7.76777C102.935 8.4513 103.891 9.45373 104.526 10.6613C105.215 12.0025 105.558 13.499 105.524 15.0114C105.524 15.1326 105.524 15.2735 105.524 15.4341C105.524 15.5946 105.499 15.7496 105.48 15.8905L91.9953 15.8905V13.7915L103.955 13.7915L102.79 14.5212C102.827 13.5615 102.61 12.6094 102.164 11.7629C101.747 10.9744 101.123 10.3189 100.361 9.86959C99.5431 9.42201 98.6284 9.18771 97.6992 9.18771C96.77 9.18771 95.8553 9.42201 95.0372 9.86959C94.266 10.3185 93.6354 10.9797 93.2181 11.777C92.7695 12.64 92.5434 13.6045 92.561 14.5804V15.065C92.5441 16.0699 92.7972 17.0606 93.293 17.9303C93.7773 18.7657 94.4863 19.4431 95.3367 19.8828C96.2772 20.3644 97.3202 20.6025 98.373 20.5759C99.2456 20.5868 100.112 20.4221 100.921 20.0913C101.691 19.7646 102.379 19.2669 102.935 18.6347L104.515 20.5139C103.792 21.3685 102.877 22.0343 101.848 22.4551C100.71 22.913 99.4942 23.1389 98.2705 23.12V23.12Z" fill="black"/>
<path d="M107.454 29.0056C106.815 29.0073 106.179 28.9259 105.56 28.7633C105.006 28.6248 104.484 28.3768 104.024 28.0336L104.95 25.7937C105.612 26.3202 106.437 26.5882 107.277 26.5488C107.601 26.569 107.926 26.5157 108.227 26.3929C108.529 26.2701 108.8 26.0809 109.021 25.8388C109.429 25.3617 109.633 24.6593 109.631 23.7314L109.631 6.88302L112.495 6.88302L112.495 23.6722C112.495 25.3063 112.063 26.6042 111.198 27.5659C110.332 28.5276 109.085 29.0075 107.454 29.0056ZM111.059 3.79229C110.804 3.8002 110.55 3.75615 110.312 3.66277C110.073 3.56938 109.856 3.42854 109.672 3.24853C109.494 3.07723 109.352 2.87003 109.257 2.6401C109.161 2.41018 109.114 2.16258 109.118 1.91306C109.112 1.65916 109.159 1.40688 109.254 1.17217C109.35 0.937459 109.492 0.725404 109.672 0.549404C109.856 0.369388 110.073 0.228548 110.312 0.135162C110.55 0.0417755 110.804 -0.00226621 111.059 0.00563878C111.572 -0.0109544 112.07 0.17949 112.445 0.535321C112.624 0.702948 112.766 0.907074 112.861 1.13432C112.957 1.36157 113.004 1.60679 113 1.85388C113.006 2.11307 112.96 2.37079 112.864 2.61111C112.769 2.85142 112.625 3.0692 112.443 3.25093C112.261 3.43267 112.045 3.5745 111.806 3.66762C111.568 3.76074 111.314 3.80317 111.059 3.79229V3.79229Z" fill="black"/>
<path d="M33.428 25.1345C33.336 25.1266 33.2467 25.0989 33.1661 25.0531C33.0855 25.0074 33.0154 24.9447 32.9605 24.8692C32.9056 24.7937 32.8673 24.7072 32.848 24.6154C32.8286 24.5237 32.8288 24.4288 32.8485 24.3371L34.2682 17.1414L30.436 16.8906C29.471 16.8258 30.1255 16.0088 30.1587 15.975C31.6894 13.5097 33.9854 9.86672 37.0273 5.00381C37.1075 4.87814 37.228 4.78455 37.3684 4.73897C37.5088 4.69414 37.6603 4.70215 37.7954 4.76151C37.9319 4.82181 38.0436 4.92835 38.1115 5.06298C38.1812 5.19894 38.2028 5.35513 38.1725 5.50532L36.7528 12.7039L40.5988 12.9547C41.037 12.9828 41.2643 13.2167 40.9926 13.7379C36.994 20.0772 34.6648 23.7774 34.0048 24.8387C33.9444 24.9368 33.8587 25.0162 33.757 25.0683C33.6554 25.1205 33.5416 25.1434 33.428 25.1345Z" fill="white"/>
</svg>
