<svg width="1404" height="1525" viewBox="0 0 1404 1525" fill="none" xmlns="http://www.w3.org/2000/svg">
<path d="M602.522 1256.13C591.856 1241.82 582.53 1226.71 575.019 1211.56C554.205 1169.76 542.688 1130.42 531.584 1092.41C517.174 1043.12 502.269 992.222 466.745 936.539C435.661 887.757 397.319 839.074 360.389 791.858C333.414 758.098 307.216 723.591 281.905 688.482C239.829 628.968 209.776 568.733 180.666 510.449C158.037 465.101 134.644 418.212 105.575 371.536L104.382 369.635L105.243 368.993C188.674 307.176 273.172 243.882 355.046 182.884C412.034 140.427 469.028 97.9651 526.03 55.4978L526.747 54.9633L528.037 56.1806C562.631 89.0076 602.826 112.965 641.796 136.134C700.322 171.005 760.882 207.151 803.955 274.293C839.166 329.256 853.547 383.131 867.418 435.209C881.083 486.283 895.062 538.892 928.649 593.772C956.909 639.961 994.791 687.898 1031.45 734.231C1053.36 761.938 1076.02 790.592 1095.71 817.843C1144.02 884.693 1177.69 950.468 1210.22 1014.03C1234.22 1060.88 1258.94 1109.37 1289.9 1158.85L1291.08 1160.76L1290.24 1161.39C1237.06 1201.01 1183.89 1240.62 1130.71 1280.24C1045.09 1344.03 956.469 1410.05 869.45 1474.89L868.692 1475.45L867.325 1474.09C836.032 1442.95 797.933 1416.89 757.715 1389.48C701.409 1350.91 643.738 1311.45 602.522 1256.13ZM419.99 864.926C437.355 888.016 453.862 911.717 469.361 935.815C505.533 992.581 520.612 1044.1 535.205 1093.94C546.215 1131.61 557.639 1170.6 578.099 1211.71C616.863 1289.42 688.323 1338.27 757.313 1385.56C797.396 1413 835.291 1438.88 866.821 1469.9C953.839 1405.41 1041.97 1339.42 1127.35 1275.81C1180.23 1236.4 1233.12 1197 1286.01 1157.6C1255.54 1108.49 1230.98 1060.5 1207.18 1014.05C1173.34 947.924 1141.36 885.448 1093.56 819.313C1074.02 792.281 1052.4 764.968 1029.58 736.095C992.733 689.5 954.602 641.272 926.013 594.511C891.774 538.415 877.588 485.143 863.765 433.643C849.416 379.811 835.841 328.943 801.461 275.266C759.732 210.185 700.099 174.642 642.435 140.286C603.665 117.172 563.609 93.3154 528.741 60.4203C471.999 102.694 415.244 144.978 358.475 187.272C276.888 248.056 192.431 310.978 109.532 372.74C138.388 419.302 161.485 465.663 183.935 510.6C212.824 568.504 242.711 628.386 284.318 687.228C309.503 722.159 335.562 756.495 362.39 790.094C381.705 814.907 401.175 839.672 419.957 864.882L419.99 864.926Z" fill="#8F6963"/>
<path d="M279.817 580.936C243.525 532.223 224.982 488.595 205.4 442.542C190.967 408.579 176.075 373.529 153.285 335.923L155.987 335.271C179.139 373.492 194.198 408.894 208.745 443.181C228.709 490.174 247.523 534.553 285.429 584.105C329.103 641.271 379.161 694.77 427.58 746.495C467.167 788.806 508.08 832.511 545.502 878.204C695.319 1061.15 825.18 1243.59 945.27 1414.79L943.025 1416.06C823.003 1245.07 693.305 1062.86 543.778 880.169C506.605 834.767 465.81 791.178 426.374 749.027C377.609 696.879 327.477 643.368 283.445 585.72L279.817 580.936Z" fill="#8F6963"/>
<path d="M348.705 546.152C312.413 497.439 293.431 450.054 273.405 400.112C258.584 363.103 243.247 324.846 220.211 285.926L222.979 285.361C246.471 324.894 262.036 363.458 276.942 400.88C298.556 454.879 318.911 505.733 361.599 558.325C404.288 610.916 455.536 655.701 504.789 698.705C546.557 735.171 589.709 772.852 628.565 815.98C648.366 837.605 668.558 858.465 689.043 878.458C710.334 899.221 731.298 920.945 751.822 943.51C819.116 1018.95 876.986 1117.33 933.048 1212.43C963.689 1264.47 992.285 1313.34 1022.13 1357.67L1019.72 1358.71C989.845 1314 960.938 1264.89 930.248 1212.95C874.586 1118.3 816.981 1020.4 750.391 945.869C730.001 923.462 709.178 901.885 688.033 881.252C667.416 861.136 647.095 840.145 627.168 818.382C588.731 775.691 545.784 738.198 504.252 701.964C454.657 658.67 403.322 613.813 359.822 560.261C355.883 555.573 352.292 550.966 348.705 546.152Z" fill="#8F6963"/>
<path d="M482.623 605.37C457.026 571.013 439.147 530.157 423 493.251C420.195 486.833 417.467 480.562 414.722 474.439C407.603 458.508 400.884 443.028 394.167 428.023C363.986 359.443 337.914 300.189 296.763 229.165L299.595 228.688C340.881 300.021 368.477 362.563 397.488 428.543C404.123 443.61 410.891 458.985 418.011 474.916C420.755 481.039 423.515 487.354 426.353 493.815C446.813 540.575 469.989 593.547 507.857 630.469C544.337 666.042 575.512 673.443 608.478 681.28C643.857 689.701 680.404 698.408 723.489 745.328C760.121 785.212 789.541 842.243 818.009 897.398C835.042 930.445 851.156 961.658 868.082 987.842C916.379 1062.59 973.933 1137.66 1029.59 1210.27C1052.45 1240.06 1076.1 1270.9 1098.37 1300.8L1096.32 1302.32C1074.08 1272.47 1050.47 1241.68 1027.64 1211.93C971.818 1139.1 914.133 1063.86 865.596 988.741C848.365 962.104 832.161 930.685 814.875 897.214C786.762 842.749 757.745 786.301 722.099 747.656C680.622 702.466 644.823 693.95 610.246 685.748C578.069 678.072 544.808 670.183 507.006 633.349C498.364 624.931 490.124 615.476 482.623 605.37V605.37Z" fill="#8F6963"/>
<path d="M531.156 509.591C488.766 452.693 461.268 381.298 434.636 312.048C415.156 261.427 396.781 213.658 373.176 171.963L376.074 171.574C400.02 213.899 418.509 261.992 438.103 312.936C468.456 391.801 499.804 473.327 552.936 532.022C589.644 572.735 628.022 595.324 668.683 619.479C705.77 641.532 744.111 664.285 781.367 701.799C803.5 724.104 826.459 746.406 850.785 770.072C898.319 816.331 947.281 863.908 989.922 911.43C1048.04 976.213 1080.9 1048.78 1112.63 1118.93C1131.38 1160.3 1150.73 1203.05 1175.18 1244.12L1172.41 1244.68C1147.78 1203.07 1128.19 1160.09 1109.36 1118.51C1076.46 1045.9 1045.41 977.353 988.462 913.878C946.025 866.544 896.921 818.733 849.799 772.984C825.441 749.275 802.286 726.71 780.23 704.551C743.802 667.85 705.886 645.325 669.379 623.793C629.984 600.396 589.29 576.197 551.595 534.586C544.459 526.657 537.612 518.284 531.156 509.591V509.591Z" fill="#8F6963"/>
<path d="M628.452 408.45C586.877 352.646 551.576 290.331 517.277 229.788C495.99 191.426 473.472 153.203 449.814 115.275L452.385 114.449C476.144 152.53 498.758 190.91 520.134 229.43C558.439 297.061 598.063 366.977 646.066 427.043C685.351 476.18 731.302 523.823 775.776 569.911C801.105 596.165 827.275 623.289 851.241 649.81C888.891 691.317 928.196 726.147 966.184 759.849C999.257 789.18 1033.48 819.495 1066.59 854.178C1127.76 918.316 1156.74 993.371 1184.76 1065.94C1201.33 1108.8 1218.42 1153.1 1241.93 1194.32L1239.03 1194.71C1215.18 1152.85 1197.92 1108.2 1181.27 1065.07C1153.6 993.395 1125.01 919.34 1065.35 856.799C1032.54 822.436 998.496 792.266 965.594 763.079C927.382 729.204 887.872 694.186 849.692 652.052C825.652 625.519 799.548 598.482 774.227 572.154C729.603 525.906 683.415 478.031 643.848 428.559C638.879 422.188 633.604 415.365 628.452 408.45Z" fill="#8F6963"/>
<path d="M685.201 1332.83C709.305 1295.27 726.916 1253.7 745.548 1209.74C751.154 1196.51 756.924 1182.82 762.967 1169.54C765.306 1164.12 767.766 1157.8 770.26 1151.17C779.407 1126.87 789.802 1099.32 809.682 1091.86C830.402 1084.11 858.949 1094.83 886.545 1105.17C914.14 1115.51 942.16 1126.08 962.838 1118.71C1017.94 1099.09 1060.34 1060.5 1101.35 1023.21C1126.94 999.921 1153.35 975.817 1182.52 956.738L1185.78 961.115C1156.71 980.117 1130.29 1004.16 1104.76 1027.4C1063.68 1064.81 1021.08 1103.35 965.779 1123.25C944.491 1130.88 915.661 1120.16 887.976 1109.62C860.292 1099.07 832.741 1088.83 812.664 1096.37C793.313 1103.64 783.045 1130.9 774.005 1154.92C771.491 1161.56 769.092 1167.83 766.684 1173.37C760.738 1186.79 754.956 1200.42 749.285 1213.56C730.624 1257.61 713.005 1299.26 688.83 1336.94L685.201 1332.83Z" fill="#8F6963"/>
<path d="M552.684 1153.47C577.534 1115.62 595.461 1073.41 614.439 1028.71C618.585 1019.04 622.75 1009.32 626.934 999.529C629.499 993.602 631.931 987.367 634.466 980.714C645.197 952.845 657.384 921.238 683.959 914.506C705.216 909.151 732.686 917.611 759.289 925.764C785.892 933.917 814.535 942.796 836.031 936.65C897.65 919.192 943.19 875.531 987.285 833.355C1010.06 811.554 1033.6 788.981 1058.9 770.609L1062.16 774.986C1036.9 793.327 1013.37 815.826 990.669 837.64C946.483 879.952 900.788 923.66 838.911 941.242C816.841 947.476 788.411 938.71 760.889 930.222C734.653 922.135 707.511 913.771 686.806 919.055C660.742 925.746 648.856 956.857 638.203 984.532C635.668 991.185 633.249 997.479 630.663 1003.42C626.457 1013.18 622.298 1022.9 618.188 1032.59C599.149 1077.33 581.213 1119.62 556.293 1157.58L552.684 1153.47Z" fill="#8F6963"/>
<path d="M928.908 596.301L925.647 591.925L466.466 934.025L469.726 938.402L928.908 596.301Z" fill="#8F6963"/>
<path d="M333.137 755.194C348.4 742.393 349.983 716.236 351.506 690.939C353.373 659.942 355.316 627.935 382.664 621.513C406.601 615.862 439.621 630.873 471.549 645.404C505.566 660.897 540.694 676.855 564.67 667.705C586.336 659.39 595.922 631.694 605.166 604.865C610.002 588.438 616.517 573.662 624.649 560.675C667.276 501.081 724.571 453.902 779.931 408.234C799.467 392.182 819.614 375.538 838.547 358.847L841.807 363.224C822.855 379.93 802.687 396.589 783.049 412.718C727.77 458.325 670.475 505.503 628 564.916C619.972 577.804 613.524 592.439 608.714 608.687C599.494 635.975 589.617 663.751 567.468 672.358C542.664 681.853 507.046 665.579 472.531 649.845C441.048 635.527 408.527 620.757 385.33 626.333C358.842 632.455 357.118 662.529 355.188 694.254C353.634 719.981 352.022 746.569 336.299 759.781L333.137 755.194Z" fill="#8F6963"/>
<path d="M212.965 573.571L209.705 569.194C225.345 557.883 224.422 532.299 223.534 507.574C222.495 478.197 221.431 447.886 248.215 442.292C271.713 437.376 303.67 453.656 334.543 469.381C367.186 485.897 401.202 503.229 424.852 495.138C448.137 487.114 458.915 457.509 469.354 428.905C475.81 411.3 481.875 394.667 490.639 382.897C535.222 322.934 593.081 274.587 649.058 227.778C667.984 211.976 687.533 195.643 706.014 179.287L709.275 183.664C690.794 200.019 671.245 216.353 652.319 232.155C596.383 278.933 538.524 327.28 494.092 387.062C485.46 398.666 479.424 415.209 473.038 432.695C462.471 461.598 451.545 491.517 427.711 499.746C403.201 508.137 368.773 490.637 335.436 473.616C305.072 458.192 273.729 442.136 250.886 446.904C225.26 452.384 226.179 480.488 227.233 510.399C228.271 535.625 229.22 561.801 212.965 573.571Z" fill="#8F6963"/>
</svg>
