<svg width="28" height="28" viewBox="0 0 28 28" fill="none" xmlns="http://www.w3.org/2000/svg">
<g clip-path="url(#clip0_498_2366)">
<path fill-rule="evenodd" clip-rule="evenodd" d="M1.92405 9.3552C-0.641351 11.9206 -0.641351 16.0795 1.92405 18.6446L9.35526 26.0761C11.9207 28.6412 16.0795 28.6412 18.6447 26.0761L26.0761 18.6446C28.6413 16.0792 28.6413 11.9204 26.0761 9.3552L18.6447 1.92399C16.0793 -0.641169 11.9204 -0.641169 9.35526 1.92399L1.92405 9.3552ZM17.2511 17.2513C19.0469 15.4555 19.0469 12.5443 17.2511 10.7487C15.4556 8.95296 12.5443 8.95296 10.7488 10.7487C8.95302 12.5445 8.95302 15.4555 10.7488 17.2513C12.5446 19.0469 15.4556 19.0469 17.2514 17.2513H17.2511Z" fill="#2962FF"/>
</g>
<defs>
<clipPath id="clip0_498_2366">
<rect width="28" height="28" fill="white"/>
</clipPath>
</defs>
</svg>
